<svg width="22" height="21" viewBox="0 0 22 21" fill="none" xmlns="http://www.w3.org/2000/svg">
<path d="M21.512 11.6384H14.9654C14.7644 11.6384 14.6016 11.8013 14.6016 12.0022V20.3674C14.6016 20.5684 14.7642 20.7312 14.9654 20.7312H21.512C21.713 20.7312 21.8758 20.5684 21.8758 20.3674L21.8756 12.0022C21.8756 11.8016 21.713 11.6387 21.512 11.6387V11.6384ZM21.1482 12.3658V17.8213H15.3291V12.3658H21.1482ZM15.3291 20.0036V18.5489H21.1485V20.0036H15.3291Z" fill="#0000A0"/>
<path d="M13.1478 18.1851H12.4204V12.0022C12.4204 11.8013 12.2578 11.6384 12.0566 11.6384L1.87293 11.6387C1.67199 11.6387 1.50912 11.8016 1.50912 12.0025V18.1854H0.781777C0.580844 18.1854 0.417969 18.3483 0.417969 18.5492V19.6404C0.417969 19.8413 0.58059 20.0042 0.781777 20.0042H13.1477C13.3486 20.0042 13.5115 19.8413 13.5115 19.6404V18.5492C13.5118 18.348 13.3489 18.1851 13.148 18.1851H13.1478ZM2.23667 12.366H11.693V18.1854L2.23667 18.1851V12.366ZM12.7841 19.2764H1.14556V18.9126H12.7841V19.2764Z" fill="#0000A0"/>
<path d="M2.59818 9.45646H6.96256C7.16349 9.45646 7.32637 9.29359 7.32637 9.09265L7.32611 1.45487C7.32611 1.25394 7.16349 1.09106 6.96231 1.09106H2.59818C2.39725 1.09106 2.23438 1.25394 2.23438 1.45487V9.09265C2.23438 9.29333 2.397 9.45621 2.59818 9.45621L2.59818 9.45646ZM2.96173 8.72912V7.27443H6.59877V8.72912H2.96173ZM6.59877 1.81875V6.54696H2.96173V1.81875H6.59877Z" fill="#0000A0"/>
<path d="M5.14728 8.00102C5.14728 8.20169 4.98441 8.36457 4.78348 8.36457C4.58254 8.36457 4.41992 8.2017 4.41992 8.00102C4.41992 7.80008 4.58254 7.63721 4.78348 7.63721C4.98441 7.63721 5.14728 7.80008 5.14728 8.00102Z" fill="#0000A0"/>
<path d="M21.5121 0H9.87357C9.67264 0 9.50977 0.162875 9.50977 0.363808V8.33022C9.50977 8.53115 9.67239 8.69403 9.87357 8.69403H15.3291V9.82047H13.1468C12.9458 9.82047 12.783 9.98335 12.783 10.1843C12.783 10.3852 12.9456 10.5481 13.1468 10.5481H18.6023C18.8033 10.5481 18.9661 10.3852 18.9661 10.1843C18.9661 9.98335 18.8035 9.82047 18.6023 9.82047H16.0565V8.69403H21.512C21.713 8.69403 21.8758 8.53115 21.8758 8.33022L21.8756 0.363808C21.8756 0.162875 21.713 0 21.512 0H21.5121ZM21.1483 0.727603V5.81933H10.2372V0.727603H21.1483ZM10.2372 7.96596V6.54654H21.1483V7.96596H10.2372Z" fill="#0000A0"/>
<path d="M16.0574 7.27395C16.0574 7.47489 15.8946 7.63776 15.6936 7.63776C15.4927 7.63776 15.3301 7.47489 15.3301 7.27395C15.3301 7.07328 15.4927 6.9104 15.6936 6.9104C15.8946 6.9104 16.0574 7.07327 16.0574 7.27395Z" fill="#0000A0"/>
<path d="M18.6024 19.2762C18.6024 19.4771 18.4395 19.64 18.2386 19.64C18.0379 19.64 17.875 19.4771 17.875 19.2762C17.875 19.0752 18.0379 18.9126 18.2386 18.9126C18.4395 18.9126 18.6024 19.0752 18.6024 19.2762Z" fill="#0000A0"/>
</svg>
