<svg width="23" height="23" viewBox="0 0 23 23" fill="none" xmlns="http://www.w3.org/2000/svg">
<path d="M9.38721 5.72638C7.41621 5.72638 5.73886 5.09459 4.91575 4.72086L4.56427 4.56069L4.75113 4.22255C5.32063 3.20813 6.13929 2.41172 7.07807 1.9579C7.07807 1.9312 7.07807 1.90451 7.07807 1.87781C7.07807 0.841145 7.91897 0.000244141 8.95564 0.000244141C9.9923 0.000244141 10.8332 0.841145 10.8332 1.87781C10.8332 1.90451 10.8332 1.9312 10.8332 1.9579C11.8165 2.43396 12.6663 3.28376 13.2402 4.36937L13.4048 4.68526L13.089 4.84988C11.9678 5.43273 10.722 5.72638 9.38721 5.72638ZM5.16046 4.36047C5.97467 4.72531 7.54969 5.29481 9.38276 5.29481C10.6241 5.29481 11.7809 5.02785 12.8176 4.50285C12.2614 3.48398 11.4472 2.69647 10.5129 2.28269L10.366 2.2204L10.3883 2.06023C10.3972 1.99794 10.4016 1.93565 10.4016 1.87781C10.4016 1.07695 9.75205 0.427368 8.95119 0.427368C8.15033 0.427368 7.50075 1.07695 7.50075 1.87781C7.50075 1.9401 7.5052 2.00239 7.51409 2.06023L7.53634 2.2204L7.38952 2.28269C6.49967 2.67867 5.71216 3.41279 5.16046 4.36047ZM4.82677 3.23037C4.77338 3.17253 4.70219 3.12804 4.61766 3.11469C4.53312 3.10134 2.53543 2.75431 2.4153 1.03246C2.40195 0.841145 2.23733 0.689872 2.03712 0.703219C1.84135 0.716567 1.69453 0.885637 1.70787 1.0814C1.85025 3.10579 3.91023 3.67974 4.39965 3.79097C4.53312 3.59521 4.6755 3.40389 4.82677 3.23037ZM15.7585 0.787755C15.5627 0.774407 15.3936 0.92568 15.3803 1.117C15.2602 2.83884 13.2625 3.18588 13.1779 3.19923C13.0979 3.21257 13.0311 3.25262 12.9777 3.30601C13.129 3.48398 13.2714 3.67529 13.4093 3.87551C13.921 3.75983 15.9498 3.17253 16.0877 1.17039C16.1011 0.970172 15.9542 0.801102 15.7585 0.787755Z" fill="#0000A0"/>
<path d="M8.95309 14.3932C6.15453 14.3932 3.87654 11.6303 3.87654 8.23553C3.87654 7.21666 4.08565 6.20224 4.48608 5.3124L4.6329 4.98315L4.95769 5.12998C4.97549 5.13888 6.60835 5.8641 8.6016 6.07766L8.76622 6.09546L8.80626 6.38021C8.80626 6.3891 8.89969 7.06539 9.00648 8.06646C9.09991 7.42577 9.21559 6.85627 9.34017 6.36241L9.40246 6.12215L9.65161 6.09991C10.6972 6.00647 12.1209 5.73952 12.9974 5.29015L13.34 5.11218L13.4868 5.46812C13.8472 6.33126 14.0296 7.2656 14.0296 8.23553C14.0296 8.58257 14.0029 8.93405 13.954 9.28109L13.9273 9.45906L13.7449 9.46351C11.4891 9.50355 9.65606 11.3678 9.65606 13.6235C9.65606 13.7881 9.66496 13.9528 9.68721 14.1174L9.7139 14.3265L9.50479 14.3532C9.32237 14.3799 9.1355 14.3932 8.95309 14.3932ZM4.84646 5.55265C4.49053 6.37576 4.30366 7.30119 4.30366 8.23553C4.30366 11.3945 6.39034 13.9661 8.95309 13.9661C9.05097 13.9661 9.14885 13.9617 9.24673 13.9528C9.23783 13.8415 9.23339 13.7303 9.23339 13.6235C9.23339 12.4133 9.70055 11.2699 10.5548 10.4067C11.3601 9.58809 12.4235 9.10757 13.558 9.04083C13.5892 8.77388 13.607 8.50248 13.607 8.23553C13.607 7.34569 13.4468 6.49589 13.1264 5.70393C12.2099 6.1533 10.7951 6.42025 9.74504 6.52258C9.50479 7.47471 9.32237 8.70714 9.20224 10.1887H8.77512C8.62829 8.34676 8.42363 6.75839 8.38803 6.48699C6.79522 6.29122 5.35812 5.77511 4.84646 5.55265ZM4.78417 12.8672C4.3437 13.0006 2.48838 13.6725 2.20363 15.6123C2.17694 15.8036 2.31041 15.9861 2.50173 16.0127C2.51953 16.0172 2.53732 16.0172 2.55512 16.0172C2.72864 16.0172 2.87991 15.8882 2.90661 15.7147C3.15131 14.0417 5.02888 13.5345 5.04668 13.5301C5.12676 13.5078 5.1935 13.4634 5.24244 13.4011C5.07782 13.232 4.92655 13.054 4.78417 12.8672ZM3.43606 7.31899H3.42272C3.32038 7.32344 0.913361 7.44357 0.428397 9.37897C0.406151 9.47241 0.419498 9.56584 0.468439 9.64593C0.517381 9.72601 0.593017 9.78385 0.686451 9.8061C0.713146 9.815 0.744291 9.815 0.770986 9.815C0.935607 9.815 1.07353 9.70377 1.11358 9.54805C1.43392 8.27112 3.06678 8.05756 3.39602 8.02641C3.39602 7.79061 3.40937 7.5548 3.43606 7.31899ZM17.5801 9.37897C17.0951 7.44357 14.6881 7.32344 14.5858 7.31899H14.568C14.5502 7.31899 14.5324 7.31899 14.5146 7.32344C14.5368 7.5548 14.5502 7.79061 14.5502 8.02641C14.5502 8.02641 14.5502 8.02641 14.5546 8.02641C14.5724 8.02641 16.539 8.1332 16.8905 9.55249C16.9305 9.70822 17.0729 9.81945 17.2331 9.81945C17.2598 9.81945 17.2909 9.815 17.3176 9.81055C17.411 9.7883 17.4867 9.73046 17.5356 9.65038C17.589 9.56584 17.6024 9.46796 17.5801 9.37897Z" fill="#0000A0"/>
<path d="M14.4877 15.297C13.9449 15.297 13.5 14.8521 13.5 14.3093C13.5 13.7665 13.9449 13.3215 14.4877 13.3215C15.0305 13.3215 15.4755 13.7665 15.4755 14.3093C15.4755 14.8521 15.035 15.297 14.4877 15.297ZM14.4877 13.7976C14.203 13.7976 13.9716 14.029 13.9716 14.3137C13.9716 14.5985 14.203 14.8298 14.4877 14.8298C14.7725 14.8298 15.0038 14.5985 15.0038 14.3137C15.0038 14.029 14.7725 13.7976 14.4877 13.7976Z" fill="#0000A0"/>
<path d="M16.8672 14.8783V13.7305L16.3645 13.6682C16.3378 13.5836 16.3022 13.5035 16.2621 13.4235L16.5736 13.0275L15.7594 12.2177L15.3634 12.5292C15.2833 12.4891 15.2032 12.458 15.1187 12.4268L15.0564 11.9241H13.9085L13.8462 12.4268C13.7617 12.4535 13.6816 12.4891 13.6015 12.5292L13.2055 12.2177L12.3913 13.0275L12.7027 13.4235C12.6627 13.5035 12.6316 13.5836 12.6004 13.6682L12.0977 13.7305V14.8783L12.6004 14.9406C12.6271 15.0252 12.6627 15.1053 12.7027 15.1853L12.3913 15.5813L13.2055 16.3955L13.6015 16.0841C13.6816 16.1241 13.7617 16.1553 13.8462 16.1864L13.9085 16.6892H15.0653L15.1276 16.1864C15.2121 16.1597 15.2922 16.1241 15.3678 16.0841L15.7638 16.3955L16.5736 15.5813L16.2621 15.1853C16.3022 15.1053 16.3333 15.0252 16.3645 14.9406L16.8672 14.8783ZM15.9907 14.5091L15.9507 14.6648C15.9151 14.8116 15.8572 14.9495 15.7772 15.0786L15.6926 15.2165L15.9418 15.5368L15.7193 15.7593L15.399 15.5101L15.261 15.5947C15.132 15.6748 14.9896 15.7326 14.8473 15.7682L14.6915 15.8082L14.6426 16.2131H14.3312L14.2822 15.8082L14.1265 15.7682C13.9797 15.7326 13.8417 15.6748 13.7127 15.5947L13.5748 15.5101L13.2545 15.7593L13.032 15.5368L13.2811 15.2165L13.1966 15.083C13.1165 14.954 13.0587 14.8116 13.0231 14.6692L12.9831 14.5135L12.5782 14.4646V14.1531L12.9831 14.1042L13.0231 13.9485C13.0587 13.8016 13.1165 13.6637 13.1966 13.5347L13.2811 13.3968L13.032 13.0764L13.2545 12.854L13.5748 13.1031L13.7127 13.0186C13.8417 12.9385 13.9797 12.8807 14.1265 12.8451L14.2822 12.805L14.3312 12.4001H14.6426L14.6915 12.805L14.8473 12.8451C14.9941 12.8807 15.132 12.9385 15.261 13.0186L15.399 13.1031L15.7193 12.854L15.9418 13.0764L15.6926 13.3968L15.7772 13.5347C15.8572 13.6637 15.9151 13.8016 15.9507 13.9485L15.9907 14.1042L16.3956 14.1531V14.4646L15.9907 14.5091Z" fill="#0000A0"/>
<path d="M22.1097 20.4802L19.0353 17.428C18.8262 17.2189 18.5415 17.1121 18.2567 17.1299C18.2345 17.1077 18.2122 17.081 18.19 17.0632L17.8874 16.7918C18.3991 16.0755 18.6794 15.2034 18.6794 14.3136C18.6794 11.9733 16.7929 10.0735 14.4794 10.0735C12.1658 10.0735 10.2793 11.9777 10.2793 14.3136C10.2793 16.6539 12.1658 18.5537 14.4794 18.5537C15.3647 18.5537 16.1967 18.2823 16.9131 17.7706C16.9264 17.784 16.9398 17.7973 16.9576 17.8107L17.2824 18.0999C17.2868 18.1043 17.2957 18.1088 17.3002 18.1177C17.2913 18.4069 17.398 18.6872 17.6071 18.8963L20.6816 21.9484C20.8773 22.1397 21.1309 22.2465 21.4023 22.2465C21.4068 22.2465 21.4068 22.2465 21.4112 22.2465C21.6826 22.2421 21.9407 22.1353 22.132 21.9395C22.5235 21.5347 22.5146 20.8806 22.1097 20.4802ZM21.8206 21.6414C21.7093 21.7527 21.5625 21.8194 21.4023 21.8194H21.3979C21.2377 21.8194 21.0909 21.7571 20.9752 21.6459L17.9008 18.5937C17.7584 18.4514 17.6917 18.2511 17.7273 18.0509L17.754 17.8952L17.6116 17.824C17.5894 17.8151 17.5716 17.8018 17.5538 17.784L17.229 17.4948C17.1978 17.4681 17.1756 17.4325 17.1578 17.388L17.0554 17.1077L16.8241 17.2946C16.1478 17.8374 15.3336 18.1266 14.4705 18.1266C12.3882 18.1266 10.6975 16.4181 10.6975 14.3136C10.6975 12.2091 12.3927 10.5006 14.4705 10.5006C16.5482 10.5006 18.2434 12.2091 18.2434 14.3136C18.2434 15.1856 17.9453 16.0354 17.4025 16.7117L17.2201 16.9386L17.4915 17.0454C17.5226 17.0587 17.5493 17.0721 17.5716 17.0943L17.8963 17.3835C17.9186 17.4058 17.9408 17.428 17.9542 17.4592L18.0298 17.6016L18.1855 17.5704C18.3813 17.5304 18.5815 17.5927 18.7239 17.735L21.7983 20.7872C22.0475 21.0185 22.0519 21.4056 21.8206 21.6414Z" fill="#0000A0"/>
</svg>
