<svg width="23" height="17" viewBox="0 0 23 17" fill="none" xmlns="http://www.w3.org/2000/svg">
<path d="M2.94137 0.00212485C2.26898 0.0143474 1.62829 0.280484 1.1566 0.743503C0.684919 1.20652 0.419767 1.82958 0.417969 2.47917C0.417969 2.5731 0.4566 2.66318 0.525363 2.7296C0.594126 2.79602 0.687389 2.83333 0.784635 2.83333H4.81797V14.5208C4.81797 15.8858 5.9715 17 7.38464 17H19.8513C21.2644 17 22.418 15.8858 22.418 14.5208C22.418 14.4269 22.3793 14.3368 22.3106 14.2704C22.2418 14.204 22.1485 14.1667 22.0513 14.1667H18.018V2.47917C18.018 1.11421 16.8644 0 15.4513 0L2.98464 0.00212485H2.94137ZM2.98464 0.708333C3.8573 0.708333 4.47844 1.33875 4.66617 2.125H1.3031C1.49084 1.33875 2.11124 0.708333 2.98464 0.708333ZM4.77397 0.708333H15.4513C16.4684 0.708333 17.2846 1.49671 17.2846 2.47917V14.1667H9.58464C9.48739 14.1667 9.39413 14.204 9.32536 14.2704C9.2566 14.3368 9.21797 14.4269 9.21797 14.5208C9.21797 15.5033 8.40177 16.2917 7.38464 16.2917C7.14366 16.2924 6.90491 16.2471 6.68213 16.1584C6.45935 16.0697 6.25694 15.9393 6.08655 15.7747C5.91615 15.6101 5.78114 15.4146 5.68928 15.1994C5.59742 14.9842 5.55053 14.7536 5.5513 14.5208V2.47917C5.5513 1.78571 5.25137 1.15883 4.77397 0.708333ZM8.2771 1.41667V2.07258C8.10476 2.09129 7.93623 2.13449 7.77697 2.20079C7.6281 2.26454 7.5005 2.34671 7.3949 2.44587C7.29224 2.54504 7.21157 2.66192 7.15437 2.79721C7.1001 2.9325 7.07224 3.08267 7.07224 3.24558C7.07224 3.42267 7.1045 3.5785 7.16757 3.71308C7.2321 3.84837 7.32377 3.96808 7.4433 4.0715C7.56504 4.17492 7.71244 4.26487 7.8833 4.34279C8.05637 4.41858 8.25217 4.48446 8.46924 4.54183C8.6313 4.59354 8.76917 4.64808 8.88284 4.70404C8.99944 4.75929 9.0933 4.8195 9.1637 4.88467C9.23704 4.95054 9.28984 5.02137 9.32284 5.09717C9.35579 5.17565 9.37224 5.25969 9.37124 5.34437C9.37124 5.45204 9.35144 5.54979 9.3111 5.63762C9.26995 5.72326 9.20868 5.79845 9.13217 5.85721C9.0559 5.91742 8.96057 5.96346 8.8469 5.99746C8.62111 6.05837 8.38281 6.06155 8.15537 6.00667C8.0527 5.98117 7.95884 5.93583 7.8745 5.86996C7.78589 5.79828 7.71625 5.70722 7.67137 5.60433C7.61539 5.47085 7.58891 5.32753 7.59364 5.18358H6.87864C6.87864 5.40883 6.9153 5.6015 6.98864 5.76229C7.06197 5.92096 7.15877 6.05412 7.2805 6.15896C7.40517 6.26521 7.5489 6.34454 7.70877 6.39979C7.86937 6.45575 8.03364 6.49258 8.2045 6.51029V7.08333H8.77064V6.51029C8.97377 6.49046 9.15637 6.4515 9.31917 6.39129C9.48197 6.33179 9.61984 6.25175 9.73424 6.15258C9.8479 6.05342 9.93664 5.93583 9.99897 5.80054C10.062 5.66383 10.0921 5.51012 10.0921 5.33871C10.0951 5.18042 10.0644 5.02322 10.0019 4.87688C9.94172 4.74221 9.85188 4.62184 9.73864 4.52412C9.60967 4.41499 9.46427 4.32542 9.30744 4.2585C9.11668 4.17389 8.91929 4.10401 8.7171 4.04954C8.56674 4.00504 8.41973 3.9506 8.2771 3.88663C8.17455 3.83773 8.07892 3.77631 7.99257 3.70387C7.92443 3.64655 7.87054 3.57513 7.8349 3.49492C7.80557 3.417 7.78944 3.332 7.78944 3.23567C7.78944 3.13225 7.80557 3.03733 7.8349 2.95233C7.86565 2.86774 7.91619 2.79114 7.98258 2.72848C8.04897 2.66583 8.12943 2.61881 8.2177 2.59108C8.31304 2.55779 8.42377 2.5415 8.5543 2.5415C8.67897 2.5415 8.79044 2.56346 8.88797 2.6095C8.984 2.65383 9.0679 2.71934 9.1329 2.80075C9.19817 2.8815 9.24657 2.97783 9.27884 3.08904C9.31404 3.20096 9.33164 3.32421 9.33164 3.45737H10.0437C10.0437 3.05362 9.93884 2.73487 9.72984 2.50254C9.5245 2.26808 9.23117 2.125 8.85204 2.07542V1.41667H8.2771ZM11.7531 3.54167C11.264 3.56575 11.3014 4.27408 11.7898 4.25H15.4454C15.9412 4.25708 15.9412 3.53458 15.4454 3.54167H11.7905C11.778 3.54105 11.7656 3.54105 11.7531 3.54167ZM11.7531 5.66667C11.264 5.69075 11.3014 6.39908 11.7898 6.375H15.4454C15.9412 6.38208 15.9412 5.65958 15.4454 5.66667H11.7905C11.778 5.66605 11.7656 5.66605 11.7531 5.66667ZM7.3531 7.79167C6.86397 7.81575 6.90137 8.52408 7.38977 8.5H15.4454C15.9412 8.50708 15.9412 7.78458 15.4454 7.79167H7.3905C7.37804 7.79105 7.36556 7.79105 7.3531 7.79167ZM7.3531 9.91667C6.86397 9.94075 6.90137 10.6491 7.38977 10.625H15.4454C15.9412 10.6321 15.9412 9.90958 15.4454 9.91667H7.3905C7.37804 9.91605 7.36556 9.91605 7.3531 9.91667ZM7.3531 12.0417C6.86397 12.0657 6.90137 12.7741 7.38977 12.75H15.4454C15.9412 12.7571 15.9412 12.0346 15.4454 12.0417H7.3905C7.37804 12.0411 7.36556 12.0411 7.3531 12.0417ZM9.8765 14.875H21.5328C21.3451 15.6612 20.7247 16.2917 19.8513 16.2917H9.1681C9.56117 15.9219 9.79144 15.4225 9.8765 14.875Z" fill="#0000A0"/>
</svg>
