<svg width="23" height="22" viewBox="0 0 23 22" fill="none" xmlns="http://www.w3.org/2000/svg">
<path d="M11.5739 4.30779C11.4773 4.25211 11.3585 4.25211 11.2619 4.30779L5.70011 7.51871C5.60358 7.5744 5.54406 7.67747 5.54406 7.78884V14.2104C5.54406 14.3219 5.60342 14.4248 5.70011 14.4805L11.2619 17.6914C11.3103 17.7193 11.3639 17.733 11.418 17.733C11.4721 17.733 11.5257 17.7192 11.574 17.6914L17.1358 14.4805C17.2324 14.4248 17.2919 14.3217 17.2919 14.2104L17.292 7.78843C17.292 7.6769 17.2327 7.57399 17.136 7.5183L11.5739 4.30779ZM11.4178 4.93806L16.3555 7.78871L14.9721 8.58746L10.0344 5.73665L11.4178 4.93806ZM11.4178 10.6394L6.48016 7.78879L7.86354 6.99003L12.8012 9.84068L11.4178 10.6394ZM13.4251 9.48074L8.48704 6.63009L9.4104 6.097L14.3481 8.94765L13.4251 9.48074ZM13.737 10.0209L14.6604 9.48777V11.4433L13.737 11.9764V10.0209ZM6.16839 8.32923L11.1061 11.1799V16.8813L6.16839 14.0306V8.32923ZM11.7298 16.8813V11.1799L13.1132 10.3812V12.5165C13.1132 12.628 13.1725 12.731 13.2692 12.7866C13.3176 12.8146 13.3712 12.8283 13.4253 12.8283C13.4791 12.8283 13.533 12.8142 13.5813 12.7866L15.1284 11.8933C15.225 11.8376 15.2845 11.7345 15.2845 11.6232L15.2846 9.12783L16.668 8.32907V14.0305L11.7298 16.8813ZM20.8625 5.34987C21.008 5.18138 21.103 4.97459 21.135 4.74898C21.2265 4.10674 20.7787 3.51018 20.1367 3.41844C19.8255 3.37408 19.516 3.45354 19.2645 3.64198C19.0132 3.83042 18.8504 4.10567 18.8061 4.41664C18.7617 4.72761 18.8412 5.0373 19.0296 5.2888C19.2181 5.5401 19.4933 5.70286 19.8043 5.74722C19.8608 5.75535 19.9169 5.75918 19.9729 5.75918C20.0996 5.75918 20.2246 5.73876 20.3438 5.69871C22.386 9.15026 22.2387 13.5699 19.9734 16.8789L19.7941 15.8429C19.7646 15.6733 19.6032 15.5593 19.4336 15.5889C19.264 15.6182 19.1501 15.7797 19.1796 15.9493L19.4839 17.7054C19.5101 17.8571 19.6419 17.9642 19.7907 17.9642C19.8084 17.9642 19.8263 17.9627 19.8443 17.9597L21.6005 17.6554C21.7701 17.6261 21.884 17.4646 21.8545 17.295C21.8251 17.1254 21.6638 17.0115 21.494 17.041L20.5016 17.213C21.6761 15.4934 22.3349 13.4892 22.4107 11.394C22.4876 9.25906 21.9529 7.17531 20.8625 5.34987ZM19.8927 5.12968C19.7467 5.10894 19.6175 5.03251 19.5289 4.91428C19.4402 4.79637 19.4032 4.6507 19.4238 4.50471C19.4445 4.35872 19.5209 4.22948 19.6392 4.14092C19.7359 4.06849 19.8507 4.03035 19.9695 4.03035C19.9956 4.03035 20.0221 4.03227 20.0486 4.0361C20.35 4.07918 20.5605 4.35936 20.5175 4.66093C20.4968 4.80692 20.4204 4.93617 20.3021 5.02472C20.1842 5.11327 20.0385 5.15075 19.8927 5.12968ZM18.0011 18.3881C17.3592 18.2964 16.7621 18.7444 16.6705 19.3865C16.6439 19.5738 16.6633 19.7569 16.7198 19.9251C13.2567 21.9758 8.85257 21.8247 5.5386 19.5556L6.57462 19.3759C6.74423 19.3466 6.85816 19.1851 6.82865 19.0155C6.79929 18.8459 6.63797 18.732 6.4682 18.7615L4.71208 19.0658C4.63054 19.0798 4.55794 19.1258 4.51023 19.1934C4.46252 19.2611 4.4437 19.3447 4.45774 19.4264L4.76202 21.1824C4.78819 21.3342 4.91998 21.4412 5.06885 21.4412C5.08656 21.4412 5.10443 21.4398 5.12247 21.4368C5.29208 21.4074 5.406 21.2459 5.37649 21.0763L5.20448 20.0839C6.90268 21.244 8.87824 21.9014 10.9497 21.9898C11.1099 21.9966 11.2695 22 11.4288 22C13.4218 22 15.3574 21.4663 17.0683 20.4443C17.2326 20.5862 17.4381 20.6844 17.6685 20.7173C17.7245 20.7255 17.7802 20.7293 17.8353 20.7293C18.4106 20.7293 18.9153 20.3052 18.9989 19.719C19.0433 19.408 18.9638 19.0983 18.7754 18.8468C18.5873 18.5954 18.3123 18.4326 18.0012 18.3881L18.0011 18.3881ZM18.3818 19.6308C18.3387 19.9325 18.0585 20.1428 17.757 20.0997C17.4555 20.0566 17.2451 19.7764 17.288 19.4748C17.3273 19.1996 17.5642 19.0005 17.8347 19.0005C17.8604 19.0005 17.8867 19.0024 17.913 19.0059C18.059 19.0267 18.1883 19.1031 18.2768 19.2213C18.3654 19.3391 18.4025 19.4846 18.3818 19.6308ZM3.03127 16.2524C2.84426 16.2258 2.66077 16.2453 2.49257 16.3017C0.443815 12.8417 0.593644 8.43304 2.86211 5.12037L3.04178 6.15686C3.06794 6.30859 3.19974 6.41566 3.34861 6.41566C3.36632 6.41566 3.38419 6.41422 3.40222 6.41119C3.57184 6.38183 3.68576 6.22036 3.65625 6.05075L3.35197 4.29467C3.32261 4.12506 3.16129 4.01114 2.99152 4.04065L1.2354 4.34493C1.06579 4.37428 0.951857 4.53576 0.981374 4.70537C1.01073 4.87497 1.17205 4.9889 1.34182 4.95938L2.3343 4.78738C1.17014 6.49081 0.512411 8.47429 0.427366 10.5521C0.339127 12.7063 0.873667 14.8087 1.97382 16.6505C1.83181 16.8148 1.73368 17.02 1.70081 17.2507C1.60938 17.893 2.05711 18.4897 2.69916 18.5813C2.75565 18.5894 2.81181 18.5932 2.86782 18.5932C3.12056 18.5932 3.36567 18.512 3.57117 18.3576C3.82248 18.1691 3.98525 17.8939 4.02961 17.5829C4.07396 17.2719 3.9945 16.9623 3.80606 16.7108C3.61746 16.4595 3.34224 16.2967 3.03122 16.2523L3.03127 16.2524ZM3.41198 17.4948C3.39124 17.6408 3.31481 17.77 3.19657 17.8585C3.07866 17.9469 2.9333 17.9843 2.78699 17.9637C2.48558 17.9206 2.27513 17.6404 2.31835 17.3389C2.3576 17.0636 2.59455 16.8645 2.86469 16.8645C2.89069 16.8645 2.91686 16.8664 2.94303 16.8699C3.08903 16.8907 3.21828 16.9671 3.30683 17.0853C3.39555 17.2034 3.43272 17.3488 3.41198 17.4948ZM5.00344 3.62363C5.25619 3.62363 5.50129 3.54241 5.7068 3.38796C5.95811 3.19952 6.12087 2.92427 6.16523 2.6133C6.19188 2.42598 6.17241 2.24281 6.11593 2.07462C9.57331 0.0278289 13.9856 0.177001 17.2976 2.44415L16.2612 2.62381C16.0916 2.65317 15.9777 2.81464 16.0072 2.98425C16.0334 3.13599 16.1652 3.24305 16.314 3.24305C16.3317 3.24305 16.3496 3.24162 16.3676 3.23859L18.1238 2.93431C18.2053 2.92027 18.2779 2.87431 18.3256 2.80666C18.3733 2.73901 18.3921 2.6554 18.3781 2.57371L18.0738 0.81763C18.0443 0.648022 17.8831 0.534097 17.7134 0.563612C17.5433 0.592811 17.4297 0.754126 17.4589 0.923893L17.6309 1.91585C15.9216 0.748538 13.9316 0.0906607 11.8481 0.00868134C9.6999 -0.0758836 7.6036 0.458649 5.7675 1.55591C5.60315 1.41407 5.39764 1.31578 5.16724 1.28291C4.8561 1.23856 4.54656 1.31801 4.29506 1.50645C4.04376 1.69489 3.88099 1.97014 3.83663 2.28111C3.79227 2.59209 3.87173 2.90178 4.06018 3.15327C4.24862 3.40457 4.52388 3.56733 4.83485 3.61169C4.89134 3.61951 4.94766 3.62366 5.00351 3.62366L5.00344 3.62363ZM4.55906 2.77875C4.47066 2.66084 4.43333 2.51516 4.45391 2.36935C4.47466 2.22335 4.55108 2.09411 4.66932 2.00556C4.76601 1.93312 4.8809 1.89499 4.99961 1.89499C5.02578 1.89499 5.05226 1.8969 5.07875 1.90073C5.38016 1.94381 5.59061 2.22399 5.5474 2.52556C5.52665 2.67156 5.45022 2.8008 5.33199 2.88935C5.21407 2.97775 5.06887 3.01508 4.92241 2.9945C4.77689 2.97312 4.64778 2.89666 4.55906 2.77875Z" fill="#0000A0"/>
</svg>
