<svg width="23" height="20" viewBox="0 0 23 20" fill="none" xmlns="http://www.w3.org/2000/svg">
<path d="M18.2245 3.44922H20.6057C21.2882 3.44922 21.8556 4.0221 21.8556 4.73957V5.95619H16.9746V4.73957C16.9746 4.02209 17.542 3.44922 18.2245 3.44922Z" stroke="#0000A0" stroke-width="0.5"/>
<path d="M20.3936 1.26033C20.3936 1.8234 19.9488 2.27045 19.4165 2.27045C18.8841 2.27045 18.4395 1.82343 18.4395 1.26033C18.4395 0.697199 18.8843 0.25 19.4165 0.25C19.9487 0.25 20.3936 0.697199 20.3936 1.26033Z" stroke="#0000A0" stroke-width="0.5"/>
<path d="M22.3007 11.422L22.1216 11.5964L20.8194 10.2589C20.7357 10.2074 20.6931 10.1943 20.6707 10.1928C20.6631 10.1922 20.6573 10.193 20.6487 10.1966C20.6385 10.2009 20.6187 10.2118 20.5893 10.2401L19.2729 11.5961L19.2726 11.5964C19.2108 11.6598 19.2108 11.7687 19.2725 11.8321C19.3315 11.8926 19.4239 11.8883 19.4754 11.8327L19.4797 11.8281L19.4797 11.8281L20.1171 11.1733L20.5462 10.7324V11.3477V14.0572V14.3072H20.2962H16.7241H16.4741V14.0572V13.7813C16.4741 13.6996 16.422 13.6403 16.3568 13.6257L16.3565 13.6256L15.7512 13.4897L15.6025 13.4563L15.5641 13.3089C15.4653 12.9305 15.3211 12.5759 15.1314 12.2405L15.0587 12.1119L15.1362 11.9862L15.4689 11.4467L15.4704 11.4443C15.5115 11.3793 15.5041 11.2953 15.4489 11.2361L14.5379 10.3003C14.4814 10.2448 14.404 10.2413 14.3521 10.2753C14.352 10.2754 14.3519 10.2755 14.3518 10.2755L13.8314 10.6208L13.7009 10.7074L13.5661 10.6278C13.2361 10.433 12.8875 10.2852 12.5235 10.1838L12.3776 10.1432L12.346 9.99507L12.2137 9.37333L12.2136 9.37308C12.1972 9.29544 12.1358 9.25 12.0694 9.25H10.7703C10.7036 9.25 10.6424 9.2956 10.6261 9.37284L10.6257 9.3748L10.6257 9.3748L10.4893 9.99715L10.457 10.1441L10.3121 10.1845C9.94825 10.2857 9.59993 10.4336 9.27472 10.6278L9.13952 10.7085L9.00831 10.6215L8.48909 10.2769C8.43133 10.2406 8.35716 10.2465 8.30177 10.3009L7.39081 11.2366C7.33568 11.2959 7.32729 11.3812 7.36679 11.4474L7.70228 11.9808L7.78131 12.1064L7.70884 12.236C7.51848 12.5762 7.37432 12.931 7.27541 13.3096L7.23691 13.4569L7.08832 13.4903L6.48298 13.6262L6.48272 13.6263C6.41395 13.6417 6.36154 13.7038 6.36154 13.7819V14.0578V14.3078H6.11154H2.54345H2.29345V14.0578V11.3483V10.733L2.7226 11.1739L3.35995 11.8287L3.36435 11.8332L3.36429 11.8333C3.41663 11.8899 3.50931 11.892 3.5671 11.8328L22.3007 11.422ZM22.3007 11.422L22.1216 11.5964C22.1833 11.6598 22.1835 11.7645 22.1216 11.8283C22.0635 11.888 21.9729 11.888 21.9147 11.8283L21.2772 11.1735L20.848 10.7327V11.3479V14.4692C20.848 14.5665 20.7749 14.6311 20.6971 14.6311H16.7239H16.4739V14.8811V15.1158C16.4739 15.1972 16.4219 15.2565 16.3566 15.2711L16.3548 15.2715L15.7495 15.4115L15.6025 15.4454L15.564 15.5913C15.4653 15.9659 15.3211 16.3207 15.1313 16.656L15.0585 16.7846L15.136 16.9104L15.4687 17.4499L15.4687 17.4499L15.4702 17.4523C15.5113 17.5173 15.5039 17.6014 15.4488 17.6606L14.5377 18.5963C14.4812 18.6518 14.4039 18.6553 14.3519 18.6213C14.3518 18.6213 14.3517 18.6212 14.3516 18.6211L13.8312 18.2758L13.7007 18.1892L13.5659 18.2688C13.2358 18.4636 12.8871 18.6116 12.5234 18.7128L12.3774 18.7534L12.3459 18.9016L12.2135 19.5233L12.2134 19.5237C12.1971 19.6008 12.1359 19.6464 12.0692 19.6464H10.7701C10.7035 19.6464 10.6423 19.601 10.6259 19.5235L10.6255 19.5218L10.4893 18.9001L10.4571 18.7532L10.3122 18.7128C9.94804 18.6114 9.59992 18.4637 9.27472 18.2695L9.13952 18.1887L9.00831 18.2758L8.48791 18.6211C8.48784 18.6211 8.48778 18.6212 8.48771 18.6212C8.43574 18.6553 8.35832 18.6519 8.30177 18.5963L7.39075 17.6606C7.33577 17.6016 7.32726 17.5161 7.36679 17.4499L7.70229 16.9165L7.78177 16.7901L7.70823 16.6602C7.51867 16.3253 7.37419 15.9664 7.27528 15.5913L7.23682 15.4454L7.08984 15.4115L6.48451 15.2715L6.48451 15.2715L6.48278 15.2711C6.41398 15.2558 6.36155 15.1934 6.36155 15.1158V14.8811V14.6311H6.11155H2.14244C2.06458 14.6311 1.99146 14.5666 1.99146 14.4692V11.3479V10.7327L1.56234 11.1735L0.924793 11.8283L0.92478 11.8283C0.868247 11.8864 0.776702 11.89 0.712776 11.8272C0.652287 11.7637 0.652851 11.6615 0.715624 11.5987L0.715642 11.5987L0.718124 11.5961L2.03709 10.2375C2.0371 10.2374 2.03712 10.2374 2.03713 10.2374C2.09245 10.1806 2.19431 10.1823 2.24772 10.2373L3.56675 11.5967L3.56706 11.597M22.3007 11.422L3.56706 11.597M3.56706 11.597C3.6288 11.6604 3.62886 11.7692 3.56715 11.8327L3.56706 11.597ZM8.82431 14.4485C8.82431 15.9102 9.98027 17.1075 11.4196 17.1075C12.8589 17.1075 14.0151 15.9103 14.0151 14.4485C14.0151 12.9869 12.8589 11.7896 11.4196 11.7896C9.98051 11.7896 8.82431 12.9867 8.82431 14.4485Z" stroke="#0000A0" stroke-width="0.5"/>
<path d="M3.36518 3.44922H5.74636C6.42891 3.44922 6.99626 4.02209 6.99626 4.73957V5.95619H2.11523V4.73957C2.11523 4.02209 2.68258 3.44922 3.36513 3.44922H3.36518Z" stroke="#0000A0" stroke-width="0.5"/>
<path d="M4.55715 2.27045C4.02491 2.27045 3.58008 1.8234 3.58008 1.26033C3.58008 0.697199 4.02496 0.25 4.55715 0.25C5.08934 0.25 5.53422 0.697199 5.53422 1.26033C5.53422 1.82343 5.08956 2.27045 4.55715 2.27045Z" stroke="#0000A0" stroke-width="0.5"/>
</svg>
