<svg width="23" height="15" viewBox="0 0 23 15" fill="none" xmlns="http://www.w3.org/2000/svg">
<path d="M0.943731 11.6073C1.80802 11.6073 2.51516 12.3232 2.51516 13.1983C2.51516 13.49 2.75087 13.7287 3.03897 13.7287H19.8009C20.089 13.7287 20.3247 13.49 20.3247 13.1983C20.3247 12.3232 21.0318 11.6073 21.8961 11.6073C22.1842 11.6073 22.4199 11.3686 22.4199 11.0769V3.652C22.4199 3.3603 22.1842 3.12165 21.8961 3.12165C21.0318 3.12165 20.3247 2.40567 20.3247 1.53059C20.3247 1.2389 20.089 1.00024 19.8009 1.00024H3.03897C2.75087 1.00024 2.51516 1.2389 2.51516 1.53059C2.51516 2.40567 1.80802 3.12165 0.943731 3.12165C0.655636 3.12165 0.419922 3.3603 0.419922 3.652V11.0769C0.419922 11.3686 0.655636 11.6073 0.943731 11.6073ZM1.46754 4.12931C2.48897 3.91717 3.30087 3.09513 3.5104 2.06095H19.3294C19.539 3.09513 20.3509 3.91717 21.3723 4.12931V10.5996C20.3509 10.8117 19.539 11.6338 19.3294 12.668H3.5104C3.30087 11.6338 2.48897 10.8117 1.46754 10.5996V4.12931Z" fill="#0000A0"/>
<path d="M9.09514 8.48881L8.72323 10.6685C8.6918 10.8701 8.77038 11.0663 8.93276 11.1883C9.0218 11.2572 9.1318 11.2891 9.2418 11.2891C9.32561 11.2891 9.40942 11.2678 9.48799 11.2254L11.4209 10.1965L13.3537 11.2254C13.5266 11.3156 13.7466 11.2997 13.9037 11.183C14.0661 11.061 14.1447 10.8648 14.1132 10.6632L13.7413 8.4835L15.3075 6.94018C15.4542 6.79699 15.5013 6.59015 15.4385 6.39923C15.3756 6.2083 15.2132 6.0651 15.0142 6.03859L12.8509 5.72038L11.887 3.73687C11.7142 3.38683 11.117 3.38683 10.9494 3.73687L9.98038 5.72038L7.81704 6.03859C7.62323 6.0651 7.45561 6.2083 7.39276 6.39923C7.3299 6.59546 7.38228 6.80229 7.52371 6.94018L9.09514 8.48881ZM10.4099 6.72804C10.5828 6.70152 10.7294 6.59545 10.8028 6.43635L11.4209 5.16881L12.0389 6.43635C12.1175 6.59545 12.2642 6.70152 12.4318 6.72804L13.8147 6.92958L12.8142 7.91603C12.6885 8.03801 12.6361 8.21302 12.6623 8.38804L12.898 9.78286L11.6618 9.12523C11.5885 9.0828 11.5047 9.06159 11.4156 9.06159C11.3266 9.06159 11.2428 9.0828 11.1747 9.12523L9.93847 9.78286L10.1742 8.38804C10.2004 8.21833 10.148 8.03801 10.0223 7.92133L9.0218 6.93488L10.4099 6.72804ZM5.13514 4.71271C5.42323 4.71271 5.65895 4.47405 5.65895 4.18236V3.12166C5.65895 2.82997 5.42323 2.59131 5.13514 2.59131C4.84704 2.59131 4.61133 2.82997 4.61133 3.12166V4.18236C4.61133 4.47405 4.84704 4.71271 5.13514 4.71271ZM5.13514 8.42516C5.42323 8.42516 5.65895 8.18651 5.65895 7.89481V6.83411C5.65895 6.54242 5.42323 6.30376 5.13514 6.30376C4.84704 6.30376 4.61133 6.54242 4.61133 6.83411V7.89481C4.61133 8.18651 4.84704 8.42516 5.13514 8.42516ZM5.13514 12.1376C5.42323 12.1376 5.65895 11.899 5.65895 11.6073V10.5466C5.65895 10.2549 5.42323 10.0162 5.13514 10.0162C4.84704 10.0162 4.61133 10.2549 4.61133 10.5466V11.6073C4.61133 11.899 4.84704 12.1376 5.13514 12.1376Z" fill="#0000A0"/>
</svg>
