<svg width="23" height="22" viewBox="0 0 23 22" fill="none" xmlns="http://www.w3.org/2000/svg">
<path d="M7.61928 18.6167C7.61928 18.8202 7.78764 18.9854 7.99556 18.9854H15.2317C15.4396 18.9854 15.6079 18.8202 15.6079 18.6167C15.6079 16.9537 14.5421 15.5332 13.0463 14.9673C13.6241 14.5399 13.9999 13.8639 13.9999 13.1013C13.9999 11.812 12.9293 10.7629 11.6134 10.7629C10.2975 10.7629 9.22698 11.812 9.22698 13.1013C9.22698 13.8639 9.6029 14.5399 10.181 14.9673C8.68495 15.5332 7.61914 16.9539 7.61914 18.6167H7.61928ZM11.2445 18.248L11.6045 16.6944H11.6531L12.0852 18.248H11.2445ZM11.6136 15.4403C11.742 15.4403 11.868 15.45 11.9925 15.4646L11.7175 15.9572H11.5458L11.312 15.4543C11.4116 15.4449 11.512 15.4403 11.6136 15.4403ZM14.8338 18.248H12.8656L12.3437 16.372L12.7504 15.6435C13.8659 16.0544 14.6918 17.0499 14.8338 18.248ZM9.97982 13.1013C9.97982 12.2186 10.7127 11.5006 11.6137 11.5006C12.5147 11.5006 13.2476 12.2188 13.2476 13.1013C13.2476 13.9841 12.5147 14.7025 11.6137 14.7025C10.7127 14.7025 9.97982 13.9842 9.97982 13.1013ZM10.5602 15.6154L10.9086 16.365L10.4723 18.2478H8.39336C8.53896 17.0204 9.40299 16.0067 10.5602 15.6154Z" fill="#0000A0"/>
<path d="M11.9207 6.99584C11.9207 6.79228 11.7523 6.63794 11.5444 6.63794C11.3363 6.63794 11.168 6.81423 11.168 7.01779C11.168 7.22136 11.3363 7.3865 11.5442 7.3865C11.7522 7.3865 11.9205 7.22136 11.9205 7.01779L11.9207 6.99584Z" fill="#0000A0"/>
<path d="M11.5442 7.86133C11.3363 7.86133 11.168 8.03248 11.168 8.23604C11.168 8.4396 11.3363 8.60475 11.5442 8.60475C11.7522 8.60475 11.9205 8.4396 11.9205 8.23604V8.2237C11.9205 8.02048 11.7522 7.86133 11.5442 7.86133Z" fill="#0000A0"/>
<path d="M3.99028 6.60765L3.98153 6.59908C3.83453 6.45468 3.60071 6.45897 3.45371 6.60354C3.3067 6.74759 3.31125 6.98528 3.45826 7.12935C3.53176 7.20138 3.6282 7.23722 3.72445 7.23722C3.82088 7.23722 3.91714 7.20138 3.99064 7.12935C4.1373 6.98496 4.13729 6.75171 3.99028 6.60765Z" fill="#0000A0"/>
<path d="M5.53321 8.64518C5.38673 8.78975 5.38743 9.02332 5.53496 9.16687L5.55386 9.18505C5.62719 9.25639 5.72327 9.29223 5.81901 9.29223C5.91561 9.29223 6.01239 9.25605 6.0859 9.1835C6.23238 9.03893 6.23168 8.80536 6.08415 8.66181L6.06524 8.64363C5.91806 8.50061 5.67969 8.50078 5.53321 8.64518Z" fill="#0000A0"/>
<path d="M4.48634 7.61759C4.33985 7.76216 4.34055 7.99573 4.48809 8.13928L4.50699 8.15746C4.58032 8.2288 4.6764 8.26464 4.77213 8.26464C4.86873 8.26464 4.96552 8.22846 5.03902 8.15591C5.1855 8.01134 5.1848 7.77777 5.03727 7.63422L5.01837 7.61605C4.87136 7.47285 4.63299 7.47337 4.48634 7.61759Z" fill="#0000A0"/>
<path d="M6.86081 10.3103C6.95724 10.3103 7.0535 10.2745 7.127 10.2025C7.27401 10.0584 7.27401 9.825 7.127 9.68094L7.11825 9.67237C6.97124 9.52832 6.73743 9.53243 6.59043 9.67683C6.44342 9.82088 6.44797 10.0586 6.59498 10.2026C6.66848 10.2745 6.76456 10.3103 6.86081 10.3103Z" fill="#0000A0"/>
<path d="M18.9931 6.60788C18.8461 6.75193 18.8461 6.98534 18.9931 7.1294C19.0666 7.20142 19.163 7.23727 19.2593 7.23727C19.3557 7.23727 19.4519 7.20142 19.5255 7.1294L19.5342 7.12082C19.6812 6.97677 19.6767 6.74765 19.5297 6.60361C19.3828 6.45921 19.1401 6.46383 18.9931 6.60788Z" fill="#0000A0"/>
<path d="M17.4287 9.1852L17.4476 9.16702C17.5951 9.02348 17.5958 8.78991 17.4494 8.64533C17.303 8.50076 17.0645 8.50059 16.9171 8.64361L16.8982 8.66179C16.7507 8.80533 16.75 9.0389 16.8965 9.18348C16.97 9.25602 17.0666 9.29221 17.1634 9.29221C17.2593 9.29238 17.3554 9.25654 17.4287 9.1852Z" fill="#0000A0"/>
<path d="M18.4775 8.15761L18.4964 8.13943C18.644 7.99589 18.6447 7.76232 18.4982 7.61774C18.3519 7.47317 18.1133 7.473 17.966 7.61603L17.9471 7.6342C17.7995 7.77774 17.7988 8.01132 17.9453 8.15589C18.0188 8.22843 18.1154 8.26462 18.2122 8.26462C18.3083 8.26445 18.404 8.22878 18.4775 8.15761Z" fill="#0000A0"/>
<path d="M16.1245 10.3107C16.2209 10.3107 16.3172 10.2748 16.3907 10.2028L16.3995 10.1942C16.5465 10.0502 16.5419 9.82106 16.3949 9.67701C16.2479 9.53261 16.0053 9.53742 15.8583 9.68147C15.7113 9.82553 15.7113 10.0589 15.8583 10.203C15.9318 10.2748 16.0283 10.3107 16.1245 10.3107Z" fill="#0000A0"/>
<path d="M8.82217 6.14678H14.0511C14.259 6.14678 14.4274 5.98163 14.4274 5.77807C14.4274 4.59359 13.7051 3.57299 12.6703 3.11153C13.035 2.78364 13.2653 2.31445 13.2653 1.79258C13.2653 0.804251 12.4447 0.000488281 11.4363 0.000488281C10.4278 0.000488281 9.60723 0.804427 9.60723 1.79258C9.60723 2.31462 9.83754 2.78363 10.2021 3.11153C9.16758 3.57304 8.44531 4.59324 8.44531 5.77807C8.44549 5.98146 8.6142 6.14678 8.82193 6.14678H8.82217ZM10.3603 1.79238C10.3603 1.21102 10.843 0.737844 11.4366 0.737844C12.0303 0.737844 12.5129 1.2108 12.5129 1.79238C12.5129 2.37373 12.0303 2.84704 11.4366 2.84704C10.843 2.84721 10.3603 2.37391 10.3603 1.79238ZM11.4366 3.58464C12.5426 3.58464 13.4638 4.37488 13.6434 5.40918H9.2301C9.40967 4.37488 10.3307 3.58464 11.4366 3.58464Z" fill="#0000A0"/>
<path d="M20.6603 3.11129C21.025 2.78339 21.2553 2.3142 21.2553 1.79233C21.2553 0.804007 20.4347 0.000244141 19.4263 0.000244141C18.4179 0.000244141 17.5973 0.804182 17.5973 1.79233C17.5973 2.31438 17.8276 2.78338 18.1921 3.11129C17.1578 3.57279 16.4355 4.59299 16.4355 5.77765C16.4355 5.98121 16.6039 6.14636 16.8118 6.14636H22.0407C22.2487 6.14636 22.417 5.98121 22.417 5.77765C22.4172 4.59299 21.6949 3.57275 20.6601 3.11129H20.6603ZM18.3502 1.79216C18.3502 1.21081 18.8329 0.737627 19.4265 0.737627C20.0201 0.737627 20.5028 1.21059 20.5028 1.79216C20.5028 2.37351 20.0201 2.84682 19.4265 2.84682C18.8329 2.84699 18.3502 2.37369 18.3502 1.79216ZM17.2198 5.40896C17.3992 4.37467 18.3204 3.58443 19.4262 3.58443C20.5321 3.58443 21.4533 4.37467 21.6329 5.40896H17.2198Z" fill="#0000A0"/>
<path d="M6.40003 5.77758C6.40003 4.5931 5.67777 3.5725 4.64291 3.11105C5.00764 2.78315 5.23794 2.31396 5.23794 1.79209C5.23794 0.803763 4.41733 0 3.40891 0C2.40049 0 1.57988 0.803938 1.57988 1.79209C1.57988 2.31413 1.8102 2.78314 2.17473 3.11105C1.14023 3.57255 0.417969 4.59275 0.417969 5.77758C0.417969 5.98114 0.586329 6.14629 0.79424 6.14629L6.02362 6.14646C6.23153 6.14646 6.39989 5.98114 6.39989 5.77758L6.40003 5.77758ZM2.33279 1.79209C2.33279 1.21074 2.81545 0.737558 3.40909 0.737558C4.00273 0.737558 4.48539 1.21052 4.48539 1.79209C4.48539 2.37344 4.00273 2.84675 3.40909 2.84675C2.81545 2.84693 2.33279 2.37362 2.33279 1.79209ZM1.20255 5.40889C1.38194 4.3746 2.30318 3.58436 3.40891 3.58436C4.51482 3.58436 5.43606 4.3746 5.61563 5.40889H1.20255Z" fill="#0000A0"/>
<path d="M17.5153 17.2379C17.3186 17.1712 17.1046 17.2732 17.0366 17.466C16.7022 18.4125 16.1124 19.2581 15.331 19.9116C12.9108 21.9357 9.26112 21.6533 7.19526 19.2815C6.34925 18.3107 5.87255 17.1089 5.82004 15.8483L6.44535 16.324C6.60916 16.4488 6.84578 16.4198 6.97317 16.2588C7.10057 16.0978 7.07101 15.8663 6.90667 15.7416L5.4625 14.6423L4.05103 15.7824C3.89072 15.9117 3.8678 16.1443 3.99993 16.3014C4.07449 16.3897 4.18212 16.4356 4.2908 16.4356C4.3748 16.4356 4.45986 16.408 4.52986 16.3513L5.0696 15.9157C5.13628 17.3276 5.6748 18.6724 6.62282 19.7605C7.91144 21.24 9.7445 22.0001 11.5892 22.0001C13.0875 22.0001 14.5935 21.4983 15.8196 20.4726C16.703 19.7338 17.3698 18.7774 17.748 17.7069C17.8159 17.5149 17.7118 17.3048 17.5153 17.2379L17.5153 17.2379Z" fill="#0000A0"/>
<path d="M18.6961 14.8398L18.0995 15.3224C18.0354 13.9044 17.4946 12.5508 16.5452 11.4612C14.2099 8.78043 10.0842 8.46073 7.349 10.7491C6.47431 11.4811 5.81118 12.4263 5.43157 13.4832C5.36261 13.6753 5.4657 13.8859 5.66171 13.9535C5.85842 14.0205 6.07264 13.92 6.14159 13.728C6.47709 12.7935 7.06354 11.9573 7.83747 11.3097C10.2577 9.28611 13.9069 9.56893 15.9728 11.9398C16.7991 12.8885 17.2757 14.064 17.3447 15.2963L16.7811 14.8672C16.6168 14.7418 16.3807 14.771 16.2529 14.9324C16.1255 15.0932 16.1551 15.3249 16.3191 15.4496L17.7638 16.5492L19.1751 15.4085C19.3354 15.2788 19.358 15.0463 19.226 14.8895C19.0941 14.7323 18.8569 14.7102 18.6963 14.8398L18.6961 14.8398Z" fill="#0000A0"/>
</svg>
