<svg width="23" height="22" viewBox="0 0 23 22" fill="none" xmlns="http://www.w3.org/2000/svg">
<path d="M4.89062 12.626V13.8457C4.89062 14.2447 5.17192 14.5789 5.54634 14.6617V11.8101C5.1719 11.8928 4.89062 12.227 4.89062 12.626Z" fill="#0000A0"/>
<path d="M7.98406 14.8623V11.6099C7.98406 11.0982 7.61238 10.6722 7.125 10.5864V15.8857C7.61238 15.8 7.98406 15.3739 7.98406 14.8622V14.8623Z" fill="#0000A0"/>
<path d="M15.2578 11.6098V14.8622C15.2578 15.3739 15.6295 15.7999 16.1169 15.8857L16.1167 10.5864C15.6293 10.6721 15.2578 11.0982 15.2578 11.6099L15.2578 11.6098Z" fill="#0000A0"/>
<path d="M5.90625 11.6098V14.8622C5.90625 15.3739 6.27793 15.7999 6.76531 15.8857V10.5864C6.27793 10.6721 5.90625 11.0982 5.90625 11.6099V11.6098Z" fill="#0000A0"/>
<path d="M17.6973 11.8101V14.6617C18.0719 14.579 18.353 14.2449 18.353 13.8457V12.626C18.353 12.227 18.0718 11.8928 17.6973 11.8101V11.8101Z" fill="#0000A0"/>
<path d="M16.4766 10.5865V15.8857C16.9469 15.803 17.3094 15.4034 17.3342 14.9158C17.3347 14.898 17.3356 14.8804 17.3356 14.8624V11.61C17.3356 11.0982 16.9641 10.6721 16.4766 10.5864L16.4766 10.5865Z" fill="#0000A0"/>
<path d="M9.49958 1.91546C9.67752 1.87408 9.80972 1.72502 9.82985 1.54381L9.97364 0.25H12.8623L12.9965 1.45705C12.9965 1.45707 12.9965 1.45708 12.9965 1.4571C13.0174 1.64554 13.1592 1.79776 13.3451 1.83252L13.3451 1.83253C14.5088 2.04998 15.6064 2.48197 16.6082 3.11717C16.7635 3.21568 16.964 3.20469 17.1076 3.08968L17.9981 2.37727L20.0408 4.41996L19.367 5.2621C19.2489 5.40948 19.241 5.61645 19.3467 5.77246C20.0337 6.78575 20.5071 7.90488 20.7545 9.0996M9.49958 1.91546L9.44296 1.67195M9.49958 1.91546L9.44296 1.67195M9.49958 1.91546C8.39783 2.17173 7.36185 2.6229 6.42006 3.25679C6.26374 3.36204 6.05772 3.35295 5.91122 3.23605L5.91097 3.23584L4.83791 2.37725L2.79521 4.41994L3.69308 5.54235C3.6931 5.54238 3.69312 5.5424 3.69314 5.54243C3.80785 5.68578 3.81866 5.88566 3.72136 6.04038L3.72133 6.04044C3.13648 6.96995 2.72473 7.98426 2.49762 9.05549C2.45911 9.23726 2.30843 9.37343 2.12414 9.39391L2.12413 9.39391L0.667969 9.55566V12.4443L2.12424 12.6061L2.12425 12.6061C2.30856 12.6266 2.45923 12.7627 2.49774 12.9445C2.72487 14.0158 3.13646 15.0301 3.72143 15.9595L3.72147 15.9596C3.81879 16.1144 3.80795 16.3143 3.69324 16.4576C3.69323 16.4576 3.69321 16.4576 3.6932 16.4576L2.79519 17.5801L4.83788 19.6226L5.91104 18.7642C6.05762 18.6469 6.26393 18.6377 6.42039 18.7434C7.36213 19.3772 8.39805 19.8283 9.49972 20.0846L9.49981 20.0846C9.67729 20.1259 9.80982 20.2748 9.82997 20.4562L9.5815 20.4838L9.82998 20.4562L9.97363 21.75H12.8623L12.9964 20.543C12.9964 20.5429 12.9964 20.5429 12.9964 20.5429C13.0174 20.3544 13.1592 20.2022 13.345 20.1675L13.3451 20.1675C14.5087 19.95 15.6063 19.518 16.6082 18.8828C16.7634 18.7844 16.9639 18.7953 17.1074 18.9102C17.1075 18.9102 17.1075 18.9103 17.1076 18.9103L17.998 19.6226L20.0407 17.58L19.367 16.7379C19.2488 16.5904 19.241 16.3835 19.3466 16.2276L19.3467 16.2274C20.0337 15.2142 20.5073 14.0951 20.7544 12.9002C20.7921 12.718 20.9428 12.5803 21.1283 12.5597C21.1283 12.5597 21.1284 12.5597 21.1284 12.5597L22.168 12.4442V9.55549L21.1285 9.44016C21.1284 9.44016 21.1284 9.44016 21.1284 9.44016C20.9429 9.4196 20.7921 9.28184 20.7545 9.0996M9.44296 1.67195C8.3115 1.93513 7.24741 2.39858 6.28047 3.04939L9.74988 0L9.58138 1.51619C9.57294 1.59215 9.51754 1.65461 9.44296 1.67195ZM20.7545 9.0996L20.9993 9.04896M20.7545 9.0996C20.7545 9.09962 20.7545 9.09963 20.7545 9.09964L20.9993 9.04896M20.9993 9.04896C21.0151 9.12539 21.0783 9.18309 21.156 9.19168M20.9993 9.04896L21.156 9.19168M21.156 9.19168L22.418 9.33169L21.156 9.19168ZM16.9286 10.0858C16.8746 7.20522 14.5146 4.87839 11.6212 4.87839C8.72787 4.87839 6.36784 7.20511 6.3139 10.0858M5.1391 10.1867C5.1391 6.61249 8.04687 3.70457 11.6212 3.70457C15.1956 3.70457 18.1034 6.61234 18.1034 10.1867M17.6545 14.7825L17.4542 14.8119L17.4413 15.0141C17.4157 15.4176 17.2887 15.794 17.0854 16.118L16.8524 15.8685C16.6876 15.9599 16.4984 16.0122 16.2968 16.0122C15.6629 16.0122 15.1468 15.496 15.1468 14.8621V11.6097C15.1468 10.9758 15.663 10.4597 16.2968 10.4597C16.4839 10.4597 16.66 10.5047 16.816 10.5842L17.1795 10.7694V10.3615V10.1867C17.1795 7.12166 14.6864 4.62839 11.6212 4.62839C8.55611 4.62839 6.06295 7.12154 6.06295 10.1867V10.3615V10.7693L6.42641 10.5842C6.58253 10.5047 6.75875 10.4597 6.94565 10.4597C7.57961 10.4597 8.09567 10.9758 8.09567 11.6097V14.8621C8.09567 15.4961 7.57952 16.0122 6.94565 16.0122C6.35897 16.0122 5.87272 15.5695 5.80429 15.0004L5.78138 14.8098L5.5914 14.7827C5.133 14.7173 4.77927 14.3216 4.77927 13.8457V12.626C4.77927 12.2734 4.97332 11.9646 5.26214 11.8013L5.3891 11.7295V11.5837V10.1867C5.3891 6.75056 8.18494 3.95457 11.6212 3.95457C15.0575 3.95457 17.8534 6.75041 17.8534 10.1867V11.5837V11.7295L17.9803 11.8013C18.2692 11.9646 18.4632 12.2734 18.4632 12.626L18.4632 13.8459C18.4632 14.3205 18.1113 14.7155 17.6545 14.7825ZM14.6468 14.8621C14.6468 15.7476 15.3474 16.4721 16.2236 16.5106C15.8981 16.7379 15.5028 16.8712 15.0771 16.8712H14.4022C14.1924 16.3779 13.642 16.058 13.0444 16.058C12.292 16.058 11.5977 16.5741 11.5977 17.3015C11.5977 18.029 12.292 18.545 13.0444 18.545C13.642 18.545 14.1924 18.2252 14.4022 17.732H15.0771C16.5337 17.732 17.739 16.6419 17.9221 15.2346C18.523 15.0589 18.9632 14.5034 18.9632 13.8459L18.9632 12.626C18.9632 12.1391 18.7215 11.7087 18.3534 11.4468V10.1867C18.3534 6.47427 15.3337 3.45457 11.6212 3.45457C7.90879 3.45457 4.8891 6.47443 4.8891 10.1867V11.4468C4.52095 11.7087 4.27927 12.1391 4.27927 12.626V13.8457C4.27927 14.5102 4.72893 15.0705 5.33969 15.2398C5.51092 15.9683 6.16539 16.5122 6.94565 16.5122C7.85563 16.5122 8.59567 15.7723 8.59567 14.8621V11.6097C8.59567 10.6997 7.85578 9.95969 6.94565 9.95969C6.81515 9.95969 6.6881 9.97504 6.56621 10.0039C6.66274 7.29923 8.89342 5.12839 11.6212 5.12839C14.349 5.12839 16.5797 7.29933 16.6763 10.0039C16.5544 9.97503 16.4274 9.95969 16.2968 9.95969C15.3868 9.95969 14.6468 10.6996 14.6468 11.6097V14.8621ZM14.0049 17.3017L13.9769 17.4279C13.9056 17.749 13.5422 18.045 13.0444 18.045C12.477 18.045 12.0977 17.6698 12.0977 17.3015C12.0977 16.9333 12.477 16.558 13.0444 16.558C13.5421 16.558 13.9056 16.8541 13.9769 17.1754L14.0049 17.3017Z" stroke="#0000A0" stroke-width="0.5"/>
</svg>
