<svg width="23" height="22" viewBox="0 0 23 22" fill="none" xmlns="http://www.w3.org/2000/svg">
<g clip-path="url(#clip0_611_36533)">
<path d="M17.8262 14.474L17.8256 14.4742C17.6413 14.5413 17.4603 14.6074 17.2866 14.6709C16.8418 14.8333 16.4455 14.9781 16.1668 15.0767C16.1623 15.0631 16.1574 15.0494 16.1523 15.0357C15.6758 13.7407 14.4293 12.8752 13.0535 12.8752L11.4035 12.8752L11.401 12.8752L10.5411 12.884C10.5407 12.884 10.5403 12.884 10.5399 12.884C9.91325 12.8839 9.55195 12.8346 9.28056 12.7238C9.52392 12.0906 9.89553 11.51 10.3798 11.0221L10.3799 11.022C11.301 10.0924 12.5306 9.57792 13.8455 9.57792H15.7463C18.147 9.57792 20.1757 11.3662 20.561 13.6951C20.5284 13.694 20.4958 13.6935 20.4631 13.6935C20.0346 13.6935 19.6104 13.7877 19.2274 13.9676L17.8262 14.474ZM18.2683 4.10077C18.2683 5.08249 17.884 6.17963 17.2558 7.02938C16.6258 7.8815 15.7832 8.44435 14.8839 8.44435C13.9869 8.44435 13.1443 7.8816 12.5136 7.0293C11.8848 6.17945 11.4995 5.08232 11.4995 4.10077C11.4995 2.22184 13.0217 0.689941 14.8839 0.689941C16.7461 0.689941 18.2683 2.22184 18.2683 4.10077ZM5.3191 11.8623V20.6799C5.3191 21.0259 5.03507 21.3099 4.6891 21.3099H1.51672C1.17075 21.3099 0.886719 21.0259 0.886719 20.6799V11.8623C0.886719 11.5164 1.17077 11.2323 1.51672 11.2323H4.6891C5.03505 11.2323 5.3191 11.5164 5.3191 11.8623Z" stroke="#0000A0" stroke-width="0.5"/>
<path d="M8.31875 13.7773C8.97489 14.1874 9.67223 14.2632 10.5249 14.2641C10.5259 14.2643 10.5266 14.2643 10.5271 14.2644L10.5339 14.2646L10.5364 14.2647L10.5387 14.2647L10.5406 14.2647L10.6036 14.2645L13.0536 14.2553C13.0538 14.2553 13.0539 14.2553 13.0541 14.2553C13.8784 14.2555 14.5834 14.7765 14.8563 15.5134C14.9197 15.6853 14.8464 15.8698 14.693 15.9465L14.693 15.9465L14.6901 15.948C13.9678 16.3211 13.3357 16.3059 12.8396 16.2896L12.8225 16.2891C12.7055 16.2852 12.5893 16.2814 12.4844 16.2843C12.375 16.2874 12.2604 16.2979 12.1546 16.3312C12.0442 16.366 11.9366 16.4277 11.8555 16.535C11.7766 16.6393 11.7394 16.7645 11.7269 16.8975C11.6861 17.2816 11.9717 17.6143 12.3445 17.655L12.3445 17.6551L12.3481 17.6554C13.657 17.779 15.0479 17.5732 16.0902 16.6629C16.2179 16.5543 16.3542 16.4737 16.508 16.4188C16.8639 16.2919 17.5004 16.0606 18.1865 15.8113C18.7139 15.6197 19.2707 15.4174 19.7517 15.2437L19.7655 15.2387L19.7786 15.2322C20.4701 14.8864 21.3711 15.1183 21.7643 15.8017C22.1635 16.4981 21.8884 17.3556 21.1715 17.7255C21.1715 17.7255 21.1714 17.7255 21.1714 17.7255L17.1587 19.7935L17.1583 19.7937C16.3273 20.2239 15.3856 20.4521 14.4396 20.4521H7.6416C7.32325 20.4521 7.00749 20.4176 6.69922 20.3508V12.9901C7.45234 13.1991 7.96272 13.537 8.21806 13.706C8.22144 13.7082 8.22478 13.7105 8.22807 13.7126C8.24579 13.7258 8.26122 13.7368 8.2737 13.7457C8.27662 13.7477 8.27923 13.7496 8.28158 13.7512C8.29169 13.7584 8.29697 13.7621 8.30124 13.7653L8.30974 13.7717L8.31875 13.7773Z" stroke="#0000A0" stroke-width="0.5"/>
</g>
<defs>
<clipPath id="clip0_611_36533">
<rect width="22" height="22" fill="white" transform="translate(0.417969)"/>
</clipPath>
</defs>
</svg>
