<svg width="23" height="22" viewBox="0 0 23 22" fill="none" xmlns="http://www.w3.org/2000/svg">
<path d="M11.1108 6.7274L11.0841 7.24642V7.51596L10.848 7.57292C10.5652 7.63511 10.2963 7.74857 10.0544 7.90778L9.8267 8.05339L9.63745 7.86757L9.26909 7.49922C9.24353 7.50086 9.21961 7.51222 9.20212 7.53106L8.90747 7.82063C8.88519 7.83842 8.87338 7.86607 8.87563 7.89433L9.24233 8.25939L9.43324 8.44686L9.28763 8.66617H9.28748C9.12827 8.91283 9.0148 9.18626 8.95262 9.47329L8.89072 9.70934H8.09872C8.08167 9.7509 8.07211 9.795 8.07031 9.84V10.2486V10.2484C8.07061 10.2849 8.08167 10.3205 8.10215 10.3507L8.62118 10.3774H8.89072L8.94768 10.6135C9.00972 10.8963 9.12333 11.1653 9.28254 11.4071L9.42815 11.6348L9.24233 11.8257L8.87397 12.1941C8.87278 12.2222 8.88444 12.2494 8.90582 12.2678L9.19539 12.5557C9.21243 12.5742 9.23575 12.5856 9.26071 12.5875L9.63415 12.2208L9.82161 12.0299L10.0409 12.1755V12.1757C10.2876 12.3349 10.561 12.4484 10.848 12.5106L11.0841 12.5724V13.3627C11.1257 13.3798 11.1698 13.3894 11.2148 13.3912H11.6233H11.6232C11.6597 13.3911 11.6952 13.38 11.7254 13.3594L11.7522 12.8403V12.5725L11.9882 12.5155C12.2711 12.4533 12.54 12.3398 12.7819 12.1806L13.0096 12.035L13.2005 12.2208L13.5688 12.5892C13.5944 12.5875 13.6183 12.5762 13.6358 12.5574L13.9305 12.2678C13.952 12.2497 13.9634 12.222 13.9607 12.1941L13.5956 11.829L13.4047 11.6416L13.5503 11.4222H13.5504C13.7097 11.1756 13.8231 10.9021 13.8853 10.6151L13.9472 10.3791H14.7374C14.7546 10.3375 14.7642 10.2934 14.766 10.2484V9.83999C14.7657 9.80351 14.7546 9.76793 14.7341 9.73773L14.2167 9.70933H13.9472L13.8902 9.47328C13.828 9.19044 13.7146 8.92149 13.5553 8.67963L13.4097 8.45195L13.5956 8.26269L13.9639 7.89434C13.9648 7.86623 13.9531 7.83917 13.9321 7.82063L13.6425 7.53271C13.6255 7.51417 13.6021 7.50281 13.5772 7.50087L13.2037 7.86758L13.0163 8.05848L12.797 7.91287V7.91272C12.5503 7.75351 12.2769 7.64005 11.9898 7.57786L11.7538 7.51597V6.72396C11.7122 6.70692 11.6681 6.6972 11.6231 6.69556H11.2147C11.1776 6.69556 11.1415 6.70662 11.1108 6.7274ZM13.1803 10.0442C13.1803 10.5114 12.9948 10.9594 12.6644 11.2897C12.3342 11.62 11.8861 11.8055 11.419 11.8055C10.9518 11.8055 10.5038 11.62 10.1735 11.2897C9.84315 10.9594 9.65764 10.5114 9.65764 10.0442C9.65764 9.57705 9.84317 9.12902 10.1735 8.79878C10.5038 8.4684 10.9518 8.2829 11.419 8.2829C11.8861 8.2829 12.3342 8.46842 12.6644 8.79878C12.9948 9.12902 13.1803 9.57705 13.1803 10.0442Z" fill="#0000A0"/>
<path d="M11.3287 2.86966C9.44808 2.8712 7.64513 3.61739 6.31669 4.94398C4.98798 6.27057 4.24244 8.06892 4.24414 9.94332C4.24569 11.8178 4.9943 13.615 6.32519 14.9391C7.65608 16.2634 9.46026 17.0065 11.3407 17.005H11.3528C12.7467 17.0043 14.1091 16.5923 15.2682 15.8207L16.2886 16.8326L15.7491 17.3773C15.7163 17.4096 15.698 17.4538 15.698 17.4996C15.698 17.5457 15.7163 17.5897 15.7491 17.6221L20.2112 21.9509C20.2795 22.0175 20.3891 22.0163 20.4559 21.9482C20.4881 21.9156 20.5058 21.8714 20.5052 21.8257C20.5047 21.78 20.4861 21.7363 20.4533 21.7043L16.1177 17.4997L18.5545 15.038L22.1188 18.3408V18.341C22.1516 18.3759 22.1974 18.3956 22.2453 18.3956C22.2933 18.3954 22.339 18.3756 22.3718 18.3407C22.4043 18.3057 22.421 18.2588 22.4176 18.2112C22.4144 18.1635 22.3914 18.1193 22.3542 18.0893L18.6669 14.6726C18.5999 14.6081 18.4937 14.6081 18.4265 14.6726L17.9077 15.1897L16.9531 14.2468C18.0346 12.8456 18.55 11.0911 18.3975 9.32983C18.2451 7.56844 17.436 5.92802 16.1296 4.73201C14.8233 3.53608 13.1149 2.87164 11.341 2.86963L11.3287 2.86966ZM16.7348 14.5228L17.6617 15.4537L16.5289 16.5914L15.5571 15.6261C15.9903 15.3041 16.3853 14.9339 16.7348 14.5228ZM16.356 9.93721C16.356 11.263 15.8276 12.5347 14.8871 13.4722C13.9465 14.4097 12.6708 14.9363 11.3406 14.9363C9.54884 14.9363 7.89306 13.9834 6.99712 12.4368C6.10137 10.8901 6.10137 8.98431 6.99712 7.43742C7.89302 5.89074 9.5488 4.93784 11.3406 4.93784C12.6707 4.93784 13.9465 5.46452 14.8871 6.40202C15.8276 7.33951 16.356 8.61113 16.356 9.93697V9.93721Z" fill="#0000A0"/>
<path d="M1.1049 18.1823H10.2086V19.7407H8.83452C8.73959 19.7407 8.66276 19.8181 8.66276 19.9138C8.66276 20.0095 8.73959 20.087 8.83452 20.087H13.9875C14.0824 20.087 14.1592 20.0095 14.1592 19.9138C14.1592 19.8181 14.0824 19.7407 13.9875 19.7407H12.6134V18.1823H15.7223L15.5506 18.0091C15.4998 17.9601 15.4595 17.9012 15.432 17.836H1.10504C0.915329 17.836 0.761506 17.6809 0.761506 17.4897V16.6239H7.96189C7.76268 16.5177 7.56913 16.4022 7.38127 16.2776H0.761545V3.63723C0.761545 3.44599 0.915368 3.29092 1.10507 3.29092H3.89104L3.9185 3.31859H3.91865C3.63692 3.7606 3.43555 4.24958 3.3242 4.76271H2.5238C2.36615 4.77245 2.21876 4.84496 2.11372 4.964C2.00882 5.08304 1.95499 5.23919 1.96389 5.39813V6.03201C1.95499 6.19093 2.00882 6.34708 2.11372 6.46613C2.21878 6.58518 2.36616 6.65768 2.5238 6.66742H3.32605C3.43739 7.18055 3.6386 7.66953 3.92034 8.11154L3.35184 8.68463C3.2471 8.80398 3.19373 8.96028 3.20308 9.11919C3.21228 9.27812 3.28375 9.427 3.40153 9.53306L3.85334 9.97985C3.90364 10.0313 3.96162 10.0745 4.02511 10.1079V10.0559C4.02204 8.75772 4.3579 7.48165 4.99897 6.3557C4.84254 5.70825 4.92658 5.02538 5.2353 4.43602C5.54417 3.84667 6.05639 3.39184 6.67522 3.15718C7.29404 2.92265 7.97663 2.92466 8.59408 3.16275C9.48325 2.79109 10.4364 2.59924 11.399 2.59829C11.6018 2.59829 11.801 2.60865 12.0002 2.62426C12.0551 2.50507 12.0714 2.37165 12.0467 2.24255C12.022 2.11362 11.9576 1.99566 11.8628 1.90568L11.411 1.45022C11.2897 1.32468 11.1245 1.25187 10.9506 1.24769C10.8104 1.24506 10.6753 1.3001 10.5762 1.40013L10.0077 1.97322C9.56989 1.68937 9.08542 1.48637 8.57687 1.37413V0.565393C8.56721 0.406465 8.49529 0.257893 8.3772 0.152003C8.25911 0.046255 8.10422 -0.00801013 7.94655 0.000958209H7.31775C7.1601 -0.00800854 7.0052 0.046255 6.8871 0.152003C6.76901 0.257905 6.69709 0.406476 6.68743 0.565393V1.37413C6.17841 1.48621 5.69319 1.6892 5.25489 1.97322L4.68804 1.40013C4.58897 1.3001 4.45386 1.24506 4.31369 1.24769C4.13977 1.25187 3.9746 1.32468 3.85328 1.45022L3.40147 1.90568C3.28368 2.01174 3.21222 2.16062 3.20302 2.31955C3.19366 2.47847 3.24703 2.63478 3.35178 2.75411L3.61464 3.0191L3.54747 2.94458H1.10503C0.922836 2.94458 0.748001 3.01755 0.619179 3.14741C0.490357 3.27728 0.417969 3.45353 0.417969 3.63719V17.4894C0.417969 17.6731 0.490357 17.8493 0.619179 17.9792C0.748001 18.1091 0.922836 18.182 1.10503 18.182L1.1049 18.1823Z" fill="#0000A0"/>
<path d="M21.7433 2.86963H13.8086C14.1014 2.96306 14.3878 3.0752 14.6663 3.20501H21.7433C21.8326 3.20501 21.9184 3.24035 21.9816 3.30323C22.0448 3.36611 22.0803 3.45146 22.0803 3.54039V15.782H20.8114L21.1737 16.1174H22.0803V16.9559L22.3634 17.2175C22.3988 17.1348 22.4171 17.0459 22.4173 16.9559V3.54059C22.4173 3.36271 22.3463 3.19203 22.2199 3.06626C22.0935 2.94049 21.922 2.86982 21.7433 2.86982L21.7433 2.86963Z" fill="#0000A0"/>
<path d="M18.0215 16.3134C18.0134 16.3061 18.0048 16.2996 17.9954 16.2939C17.9284 16.2452 17.8367 16.251 17.7764 16.3082L16.7329 17.3272C16.6989 17.3606 16.6797 17.4066 16.6797 17.4547C16.6797 17.5028 16.6989 17.5489 16.7329 17.5823L20.211 20.9938C20.2801 21.0618 20.3903 21.0599 20.4569 20.9894C20.5237 20.919 20.5218 20.8066 20.4526 20.7387L17.1085 17.4547L18.0162 16.5686C18.051 16.5359 18.0712 16.4903 18.0721 16.4422C18.0731 16.3941 18.0547 16.3476 18.0215 16.3134Z" fill="#0000A0"/>
<path d="M18.0757 3.8267H17.6779C17.5776 3.82151 17.4792 3.85481 17.4046 3.91897C17.3299 3.98313 17.2851 4.07311 17.28 4.1689V4.65317C16.9585 4.72008 16.6521 4.84122 16.3749 5.01064L16.0164 4.66845C15.9534 4.60933 15.8683 4.57678 15.7799 4.57786C15.7609 4.57648 15.7417 4.57648 15.7227 4.57786C16.1878 4.95916 16.6041 5.3915 16.9628 5.86611C17.3873 5.60779 17.9093 5.54072 18.3903 5.68279C18.8712 5.82487 19.2623 6.16156 19.4599 6.60367C19.6573 7.04579 19.6412 7.54836 19.4157 7.97812C19.1902 8.40784 18.7782 8.72102 18.289 8.83467C18.3722 9.26654 18.4148 9.70451 18.4162 10.1436C18.4162 10.2702 18.4132 10.3962 18.4073 10.5217V10.5218C18.4519 10.4676 18.4766 10.4008 18.4772 10.3318V9.84766C18.7987 9.7806 19.1053 9.65961 19.3823 9.49004L19.7407 9.83224C19.8038 9.89136 19.8889 9.92405 19.9772 9.92298C20.0881 9.92099 20.1939 9.8773 20.2712 9.80138L20.5525 9.53281H20.5526C20.6288 9.46926 20.6751 9.37913 20.6811 9.28258C20.6872 9.18619 20.6525 9.09132 20.5848 9.01952L20.2264 8.67732C20.404 8.41289 20.5309 8.12019 20.601 7.81327H21.1028C21.2031 7.80838 21.2974 7.76561 21.3646 7.69442C21.4318 7.62308 21.4667 7.52928 21.4612 7.43349V7.05876C21.4667 6.96298 21.4318 6.86902 21.3646 6.79783C21.2974 6.72649 21.2031 6.68372 21.1028 6.67883H20.5955C20.5254 6.37192 20.3987 6.07938 20.2211 5.81478L20.5795 5.47258C20.6472 5.40078 20.6819 5.30607 20.6759 5.20952C20.6698 5.11312 20.6234 5.02299 20.5472 4.95929L20.2659 4.69073C20.1884 4.6148 20.0828 4.57126 19.9719 4.56928C19.8836 4.56821 19.7983 4.60075 19.7353 4.65987L19.3768 5.00206C19.0998 4.83264 18.7934 4.7115 18.4717 4.64459V4.16888C18.4612 3.97013 18.2841 3.81708 18.0757 3.8267Z" fill="#0000A0"/>
</svg>
